#!OML:ASF F:\VICON\USERDATA\INSTALL\rory3\rory3.ASF
:FULLY-SPECIFIED
:DEGREES
1211
root -6.91554 17.668 0.61269 9.11034 -29.5343 4.20529
lowerback 8.29013 3.80072 2.02311
upperback 1.59118 5.28577 2.5982
thorax -3.04884 2.60378 0.984191
lowerneck -22.1577 6.95402 -5.35437
upperneck 32.4643 14.6471 -6.05478
head 15.2998 4.57432 1.19322
rclavicle 4.41302e-014 -4.13472e-014
rhumerus -24.5441 -2.46458 -70.9876
rradius 36.6537
rwrist 14.4096
rhand -23.1051 -0.0705378
rfingers 7.12502
rthumb 3.34161 -30.0241
lclavicle 4.41302e-014 -4.13472e-014
lhumerus -36.5635 5.71983 81.4459
lradius 33.5107
lwrist -12.6047
lhand -12.93 20.1988
lfingers 7.12502
lthumb 13.1607 49.7634
rfemur -18.9102 -13.2627 26.0651
rtibia 36.8811
rfoot -26.4411 -2.57221
rtoes 7.23313
lfemur -30.2546 4.4402 -31.7634
ltibia 18.6527
lfoot 1.77038 -4.62094
ltoes -0.934685
1212
root -6.96988 17.6646 0.680744 9.00306 -29.572 3.90281
lowerback 8.24789 3.94671 1.97931
upperback 1.5299 5.47747 2.58975
thorax -3.09339 2.69927 0.979633
lowerneck -22.0777 6.97825 -5.39937
upperneck 32.7633 14.6662 -5.85623
head 15.3945 4.58687 1.28466
rclavicle 9.93923e-015 1.59028e-015
rhumerus -25.0948 -2.70677 -70.9265
rradius 36.9738
rwrist 14.297
rhand -23.0689 0.136404
rfingers 7.12502
rthumb 3.37652 -29.8166
lclavicle 9.93923e-015 1.59028e-015
lhumerus -36.7569 6.195 81.1085
lradius 32.8272
lwrist -12.9066
lhand -12.7624 20.2619
lfingers 7.12502
lthumb 13.3222 49.8161
rfemur -18.4943 -13.5256 26.2423
rtibia 37.1957
rfoot -25.9326 -2.23607
rtoes 7.19702
lfemur -29.9298 3.05039 -30.9834
ltibia 18.8644
lfoot 2.65044 -3.24855
ltoes 4.28283
1213
root -7.02521 17.6638 0.747483 8.82872 -29.5827 3.75575
lowerback 8.18524 4.07916 1.82372
upperback 1.48406 5.63857 2.51403
thorax -3.11447 2.78103 0.972961
lowerneck -21.9516 7.03906 -5.3736
upperneck 33.0279 14.7075 -5.67465
head 15.4702 4.61972 1.3603
rclavicle -1.27222e-014 -1.11319e-014
rhumerus -25.5659 -3.0625 -70.9032
rradius 37.1963
rwrist 14.2819
rhand -23.0635 0.304778
rfingers 7.12502
rthumb 3.3818 -29.6481
lclavicle -1.27222e-014 -1.11319e-014
lhumerus -36.8419 6.7249 80.6939
lradius 32.1012
lwrist -13.1039
lhand -12.3483 20.3608
lfingers 7.12502
lthumb 13.7213 49.8884
rfemur -18.1154 -13.7968 26.2923
rtibia 37.5646
rfoot -25.2255 -2.04849
rtoes 6.96845
lfemur -29.7293 2.16116 -30.4764
ltibia 19.2064
lfoot 2.91733 -2.31301
ltoes 6.81641
1214
root -7.08201 17.6676 0.81344 8.65667 -29.703 3.74338
lowerback 7.98154 4.226 1.52117
upperback 1.4643 5.80063 2.39911
thorax -3.04105 2.86601 1.01903
lowerneck -21.7058 7.16521 -5.27056
upperneck 33.1192 14.8401 -5.66018
head 15.4646 4.69404 1.36532
rclavicle 1.66979e-014 2.8625e-014
rhumerus -25.9382 -3.23071 -70.9444
rradius 37.3642
rwrist 14.1744
rhand -23.2986 0.364395
rfingers 7.12502
rthumb 3.15469 -29.592
lclavicle 1.66979e-014 2.8625e-014
lhumerus -36.8446 7.53727 80.1124
lradius 31.3601
lwrist -13.8677
lhand -11.264 20.6992
lfingers 7.12502
lthumb 14.7661 50.1532
rfemur -17.8493 -14.0299 26.1929
rtibia 38.0408
rfoot -24.6309 -1.78176
rtoes 6.68557
lfemur -29.599 2.20544 -30.427
ltibia 19.7073
lfoot 2.51892 -1.71442
ltoes 6.04757
1215
root -7.13784 17.6703 0.882193 8.51661 -29.8492 3.58243
lowerback 7.79768 4.3558 1.38503
upperback 1.47472 5.95414 2.29215
thorax -2.93217 2.94491 0.983472
lowerneck -21.5392 7.30934 -5.08907
upperneck 33.2224 15.0098 -5.72005
head 15.4997 4.77721 1.33936
rclavicle 4.25399e-014 7.95139e-015
rhumerus -26.2865 -3.42793 -71.0958
rradius 37.5225
rwrist 13.9948
rhand -23.6193 0.235773
rfingers 7.12502
rthumb 2.84503 -29.725
lclavicle 4.25399e-014 7.95139e-015
lhumerus -36.898 8.43581 79.4282
lradius 30.7618
lwrist -14.7008
lhand -10.5235 20.8495
lfingers 7.12502
lthumb 15.4795 50.2498
rfemur -17.604 -14.188 26.1834
rtibia 38.7025
rfoot -24.3299 -1.25807
rtoes 7.76437
lfemur -29.342 2.47655 -30.2874
ltibia 20.277
lfoot 1.91933 -1.50886
ltoes 5.14737
1216
root -7.19438 17.6688 0.947837 8.38805 -29.9167 3.45906
lowerback 7.6305 4.44022 1.19562
upperback 1.47401 6.04487 2.1838
thorax -2.84884 2.9929 0.980909
lowerneck -21.4269 7.48411 -4.84944
upperneck 33.3222 15.2275 -5.82651
head 15.558 4.87816 1.29758
rclavicle 3.29983e-014 1.11319e-014
rhumerus -26.607 -3.72995 -71.2645
rradius 37.6284
rwrist 13.9889
rhand -23.7622 0.142961
rfingers 7.12502
rthumb 2.70699 -29.8196
lclavicle 3.29983e-014 1.11319e-014
lhumerus -36.9956 9.25083 78.8064
lradius 30.2652
lwrist -14.6594
lhand -10.5694 20.6509
lfingers 7.12502
lthumb 15.4353 50.0546
rfemur -17.4893 -14.4742 26.1617
rtibia 39.5666
rfoot -24.0557 -0.560021
rtoes 9.61389
lfemur -29.0779 2.58846 -30.0803
ltibia 20.8578
lfoot 1.3293 -1.97347
ltoes 5.28355
1217
root -7.24958 17.664 1.00907 8.12652 -29.783 3.63179
lowerback 7.56668 4.43564 0.80566
upperback 1.39655 6.00623 2.02453
thorax -2.91583 2.97757 1.03701
lowerneck -21.3302 7.69803 -4.61066
upperneck 33.5784 15.5278 -5.91985
head 15.6968 5.00159 1.28078
rclavicle -4.57205e-014 9.54166e-015
rhumerus -26.9571 -3.95332 -71.4715
rradius 37.7377
rwrist 13.9093
rhand -23.7492 -0.0219146
rfingers 7.12502
rthumb 2.71957 -29.9843
lclavicle -4.57205e-014 9.54166e-015
lhumerus -37.2271 9.98188 78.2378
lradius 29.9505
lwrist -14.2684
lhand -9.72611 21.5695
lfingers 7.12502
lthumb 16.2474 50.9087
rfemur -17.548 -15.0399 25.9216
rtibia 40.6242
rfoot -23.6103 -0.160876
rtoes 9.63626
lfemur -28.7892 2.37869 -30.0304
ltibia 21.3508
lfoot 0.86787 -2.44283
ltoes 5.28494
1218
root -7.30643 17.6667 1.071 7.84806 -29.5798 3.8555
lowerback 7.52294 4.44714 0.459986
upperback 1.3085 5.99052 1.78933
thorax -2.9923 2.97309 0.986813
lowerneck -21.3446 7.89518 -4.30527
upperneck 33.9409 15.7941 -5.97193
head 15.9159 5.11152 1.27231
rclavicle 4.37326e-015 -7.95139e-015
rhumerus -27.2696 -4.44925 -71.7717
rradius 37.7268
rwrist 13.8782
rhand -23.755 -0.0636157
rfingers 7.12502
rthumb 2.71398 -30.0261
lclavicle 4.37326e-015 -7.95139e-015
lhumerus -37.4544 10.6787 77.578
lradius 29.6966
lwrist -14.2166
lhand -8.2798 23.3366
lfingers 7.12502
lthumb 17.6396 52.5564
rfemur -17.7112 -15.5998 25.6393
rtibia 41.8646
rfoot -23.0881 -0.00142943
rtoes 8.28748
lfemur -28.4595 2.2027 -30.0151
ltibia 21.657
lfoot 0.500967 -2.60777
ltoes 4.17795
1219
root -7.36718 17.6738 1.13755 7.57182 -29.4779 4.00881
lowerback 7.3747 4.51002 0.155933
upperback 1.28502 6.04419 1.58127
thorax -2.94388 3.00321 0.946511
lowerneck -21.2354 8.04512 -4.16806
upperneck 34.1516 15.9803 -5.93262
head 16.0042 5.19995 1.30194
rclavicle -2.46493e-014 -1.59028e-015
rhumerus -27.4999 -5.10788 -71.9987
rradius 37.5161
rwrist 14.0627
rhand -23.8349 0.204682
rfingers 7.12502
rthumb 2.63681 -29.7588
lclavicle -2.46493e-014 -1.59028e-015
lhumerus -37.6412 11.2449 76.9844
lradius 29.4632
lwrist -14.0493
lhand -7.65491 24.6236
lfingers 7.12502
lthumb 18.2409 53.7884
rfemur -17.8965 -16.1227 25.3695
rtibia 43.2571
rfoot -22.4567 0.127989
rtoes 5.93237
lfemur -28.003 2.25342 -29.9646
ltibia 21.79
lfoot 0.110052 -2.98471
ltoes 3.31372
1220
root -7.42331 17.6754 1.20232 7.3687 -29.2211 4.15605
lowerback 7.18189 4.48847 -0.104578
upperback 1.25202 5.99183 1.43378
thorax -2.88055 2.98043 0.958307
lowerneck -21.0447 8.16242 -4.2407
upperneck 34.2794 16.1762 -5.89641
head 16.0148 5.27596 1.3578
rclavicle -2.42517e-014 2.38542e-014
rhumerus -27.633 -5.86222 -72.1538
rradius 37.2305
rwrist 14.465
rhand -23.8872 0.473583
rfingers 7.12502
rthumb 2.58632 -29.4905
lclavicle -2.42517e-014 2.38542e-014
lhumerus -37.7642 11.8532 76.4579
lradius 28.9811
lwrist -14.207
lhand -7.42529 25.0993
lfingers 7.12502
lthumb 18.4618 54.2432
rfemur -18.2562 -16.8136 25.1208
rtibia 44.7577
rfoot -21.7502 0.266892
rtoes 4.08379
lfemur -27.565 2.35193 -29.9755
ltibia 21.8196
lfoot -0.212014 -3.90215
ltoes 3.5186
1221
root -7.47154 17.6769 1.26282 7.29555 -28.7656 4.24063
lowerback 6.98317 4.39985 -0.165385
upperback 1.19633 5.86526 1.2479
thorax -2.81134 2.91858 0.827844
lowerneck -21.0027 8.24265 -4.24664
upperneck 34.4074 16.3115 -5.87236
head 16.0671 5.32596 1.39501
rclavicle 1.47101e-014 -3.49861e-014
rhumerus -27.6364 -6.65994 -72.4468
rradius 36.9046
rwrist 14.9266
rhand -23.9929 0.357636
rfingers 7.12502
rthumb 2.48418 -29.6076
lclavicle 1.47101e-014 -3.49861e-014
lhumerus -37.7747 12.645 75.8069
lradius 28.199
lwrist -15.0282
lhand -8.06225 24.2892
lfingers 7.12502
lthumb 17.8489 53.4901
rfemur -18.7539 -17.654 24.9126
rtibia 46.3241
rfoot -21.0286 0.623425
rtoes 3.52101
lfemur -27.2195 2.5188 -30.038
ltibia 21.8315
lfoot -0.479598 -4.87064
ltoes 3.61903
1222
root -7.51847 17.6793 1.32594 7.23523 -28.3912 4.24913
lowerback 6.73702 4.36257 -0.0852745
upperback 1.18143 5.81548 1.02914
thorax -2.65804 2.89349 0.584833
lowerneck -20.9725 8.29068 -4.29298
upperneck 34.4487 16.3485 -5.72046
head 16.0535 5.35734 1.47004
rclavicle -2.66371e-014 2.38542e-014
rhumerus -27.7114 -7.3855 -72.7698
rradius 36.6685
rwrist 15.1083
rhand -23.9485 0.107612
rfingers 7.12502
rthumb 2.52707 -29.8572
lclavicle -2.66371e-014 2.38542e-014
lhumerus -37.6946 13.3035 75.2069
lradius 27.5647
lwrist -15.227
lhand -8.93251 23.6547
lfingers 7.12502
lthumb 17.0114 52.9298
rfemur -19.2593 -18.5644 24.7036
rtibia 47.9095
rfoot -19.6594 1.15584
rtoes 4.72005
lfemur -26.7902 2.45963 -29.9592
ltibia 21.8756
lfoot -0.775067 -5.20238
ltoes 3.6491
1223
root -7.56682 17.6817 1.39276 7.11483 -28.0934 4.13336
lowerback 6.5789 4.33239 0.0347946
upperback 1.13699 5.78145 0.915956
thorax -2.59187 2.876 0.417407
lowerneck -20.7732 8.35585 -4.44617
upperneck 34.4749 16.4375 -5.58357
head 15.9861 5.40385 1.55466
rclavicle 1.0138e-013 7.95139e-015
rhumerus -28.0501 -7.76942 -72.9889
rradius 36.6048
rwrist 15.0926
rhand -23.8686 0.195255
rfingers 7.12502
rthumb 2.60428 -29.7686
lclavicle 1.0138e-013 7.95139e-015
lhumerus -37.8754 13.832 74.7281
lradius 27.3134
lwrist -14.9191
lhand -9.11796 23.7097
lfingers 7.12502
lthumb 16.8329 53.0001
rfemur -19.6867 -19.5539 24.5534
rtibia 49.4745
rfoot -17.7512 1.46286
rtoes 4.4378
lfemur -26.2232 2.23498 -29.7093
ltibia 21.9289
lfoot -1.07716 -5.474
ltoes 3.52299
1224
root -7.61999 17.6907 1.46013 6.82911 -27.8102 3.97488
lowerback 6.61354 4.28414 0.123719
upperback 1.11139 5.72235 0.846448
thorax -2.6211 2.84561 0.298888
lowerneck -20.642 8.47946 -4.53266
upperneck 34.6108 16.6214 -5.46219
head 15.9987 5.48281 1.64732
rclavicle 3.63776e-014 -9.54166e-015
rhumerus -28.4672 -7.90815 -73.247
rradius 36.6004
rwrist 15.1533
rhand -23.7802 0.188075
rfingers 7.12502
rthumb 2.68964 -29.7747
lclavicle 3.63776e-014 -9.54166e-015
lhumerus -38.1577 14.367 74.2307
lradius 27.2049
lwrist -14.677
lhand -8.9562 23.8436
lfingers 7.12502
lthumb 16.9886 53.1207
rfemur -19.8743 -20.1986 24.3495
rtibia 50.9858
rfoot -16.1231 1.59031
rtoes 4.35337
lfemur -25.4966 2.13184 -29.4611
ltibia 21.9303
lfoot -1.38478 -5.77897
ltoes 3.17752
1225
root -7.67864 17.699 1.52544 6.33095 -27.6529 3.9622
lowerback 6.77373 4.3255 -0.0133736
upperback 1.17275 5.7647 0.757979
thorax -2.65147 2.86711 0.269993
lowerneck -20.6356 8.61438 -4.47114
upperneck 34.8036 16.839 -5.45631
head 16.1013 5.56555 1.68693
rclavicle -2.0276e-014 -4.77083e-015
rhumerus -28.8363 -8.04987 -73.4868
rradius 36.6325
rwrist 15.1071
rhand -23.513 0.163631
rfingers 7.12502
rthumb 2.9477 -29.7957
lclavicle -2.0276e-014 -4.77083e-015
lhumerus -38.3439 14.728 73.858
lradius 27.2287
lwrist -14.2334
lhand -8.88204 24.1807
lfingers 7.12502
lthumb 17.06 53.4516
rfemur -19.9021 -20.4549 23.9293
rtibia 52.4784
rfoot -14.6304 1.61684
rtoes 6.63855
lfemur -24.5941 2.12648 -29.3135
ltibia 21.8027
lfoot -1.63548 -5.82577
ltoes 3.38031
